Coordinates
version=1
nRows=26
nColumns=24
inDegrees=yes

Units are S.I. units (second, meters, Newtons, ...)
Angles are in degrees.

endheader
time	pelvis_tilt	pelvis_list	pelvis_rotation	pelvis_tx	pelvis_ty	pelvis_tz	hip_flexion_r	hip_adduction_r	hip_rotation_r	knee_angle_r	ankle_angle_r	subtalar_angle_r	mtp_angle_r	hip_flexion_l	hip_adduction_l	hip_rotation_l	knee_angle_l	ankle_angle_l	subtalar_angle_l	mtp_angle_l	lumbar_extension	lumbar_bending	lumbar_rotation
      0.75800000	     -3.31412171	     -4.60073357	      4.55626943	     -0.42289823	      1.02518678	      0.31285317	     15.84379872	      9.16031245	     -2.78047562	    -15.08302911	      3.76215825	     -8.82774299	      7.84260672	     22.37743046	     -7.07807592	     -4.44997709	    -66.93832979	     -1.01238580	     -3.05708727	      1.79276355	     -3.15518377	      2.32776354	      1.04880511
      0.76216667	     -3.34156699	     -4.50483612	      4.53490757	     -0.41782411	      1.02588979	      0.31306116	     15.43575346	      9.11164316	     -2.69312427	    -14.86698077	      3.88971319	     -8.79168078	      7.83111699	     22.91588128	     -6.98643707	     -4.49447373	    -66.44222367	     -0.55391473	     -3.35825367	      1.76367438	     -3.16805595	      2.19345324	      1.12013387
      0.76633333	     -3.36070895	     -4.40535715	      4.51423829	     -0.41275528	      1.02660495	      0.31326036	     15.01453908	      9.05866848	     -2.60837986	    -14.64061151	      4.01169716	     -8.74981988	      7.81710574	     23.42229039	     -6.88443697	     -4.53530276	    -65.86527126	     -0.11771184	     -3.65744006	      1.73135768	     -3.19405588	      2.05283198	      1.19406613
      0.77050000	     -3.37001275	     -4.29198460	      4.48792151	     -0.40769315	      1.02732979	      0.31344737	     14.58247269	      8.99044514	     -2.51998552	    -14.41720393	      4.13462996	     -8.70206961	      7.79573733	     23.88986344	     -6.76195322	     -4.58273443	    -65.20455421	      0.29427138	     -3.96418353	      1.68490808	     -3.24773750	      1.89743427	      1.28326639
      0.77466667	     -3.34893852	     -4.16909150	      4.46341518	     -0.40262309	      1.02811167	      0.31362070	     14.10519771	      8.91390488	     -2.41820460	    -14.17088533	      4.26899550	     -8.62826163	      7.73977473	     24.29464463	     -6.62272058	     -4.62336171	    -64.45194465	      0.62885494	     -4.26041853	      1.56955170	     -3.33153473	      1.73613301	      1.42427343
      0.77883333	     -3.35371825	     -4.05435419	      4.43725966	     -0.39757672	      1.02881208	      0.31377148	     13.66831885	      8.83911613	     -2.34094626	    -13.94305448	      4.36903267	     -8.57953935	      7.70627529	     24.71109588	     -6.48278624	     -4.65662350	    -63.64547162	      1.03988890	     -4.50753952	      1.50728959	     -3.39016850	      1.60110332	      1.47137278
      0.78300000	     -3.35396448	     -3.92666285	      4.40292429	     -0.39251944	      1.02951291	      0.31393924	     13.22182367	      8.75348565	     -2.25165568	    -13.70873826	      4.48055098	     -8.52402019	      7.66848076	     25.09026876	     -6.32797801	     -4.69965057	    -62.75364886	      1.40046943	     -4.75049211	      1.43807089	     -3.45349283	      1.43387772	      1.53028464
      0.78716667	     -3.32786535	     -3.79983415	      4.36868344	     -0.38747135	      1.03023857	      0.31409172	     12.74491802	      8.66863412	     -2.16842781	    -13.46731001	      4.58568798	     -8.46524293	      7.63072097	     25.41537300	     -6.17101145	     -4.73719637	    -61.78985535	      1.75089232	     -4.96899279	      1.37155900	     -3.54679290	      1.27319300	      1.59052877
      0.79133333	     -3.30704575	     -3.67897759	      4.33112526	     -0.38241749	      1.03092981	      0.31424794	     12.26980367	      8.59012925	     -2.07451282	    -13.21610764	      4.70911149	     -8.39602432	      7.56046623	     25.72199911	     -6.01639736	     -4.76937770	    -60.75568313	      2.04155371	     -5.17073207	      1.24986683	     -3.63073315	      1.10946625	      1.68131934
      0.79550000	     -3.26704693	     -3.54552894	      4.28351887	     -0.37738140	      1.03164361	      0.31440640	     11.77889357	      8.49927446	     -1.97875636	    -12.97428444	      4.81411068	     -8.33324374	      7.48946391	     25.97560017	     -5.84662844	     -4.80632300	    -59.64632371	      2.35781770	     -5.33660303	      1.13257227	     -3.74608862	      0.94280662	      1.75081702
      0.79966667	     -3.24574109	     -3.41310111	      4.22677269	     -0.37235604	      1.03228785	      0.31455973	     11.31437425	      8.40678904	     -1.87856280	    -12.74348055	      4.92187083	     -8.27219057	      7.41406073	     26.22397806	     -5.67228125	     -4.84076669	    -58.47161005	      2.65046785	     -5.48755914	      1.01120477	     -3.84204375	      0.77785385	      1.81970300
      0.80383333	     -3.24371653	     -3.28610544	      4.16954307	     -0.36734619	      1.03286562	      0.31469720	     10.88286488	      8.31304318	     -1.81116189	    -12.53228035	      5.02720293	     -8.18055783	      6.63020117	     26.47205955	     -5.49197375	     -4.85408992	    -57.23985790	      2.96961066	     -5.56813195	     -0.20665469	     -3.90530273	      0.60933931	      2.05976588
      0.80800000	     -3.22966794	     -3.15687140	      4.08034684	     -0.36234621	      1.03342790	      0.31488302	     10.43713910	      8.22820099	     -1.66045381	    -12.32245478	      5.14682781	     -8.14790213	      6.61324704	     26.67271053	     -5.32511250	     -4.90308575	    -55.93585346	      3.24714110	     -5.68466929	     -0.23441881	     -4.00407740	      0.45644783	      1.99325896
      0.81216667	     -3.18695057	     -3.03385738	      4.00828829	     -0.35732841	      1.03402433	      0.31503569	      9.95015968	      8.14506726	     -1.54618718	    -12.08429989	      5.25211752	     -8.09157278	      6.58304244	     26.81580758	     -5.15295859	     -4.92065453	    -54.55785336	      3.44965813	     -5.78424468	     -0.28150379	     -4.12606650	      0.30504723	      2.03536315
      0.81633333	     -3.19720042	     -2.90613379	      3.91241775	     -0.35234237	      1.03448384	      0.31520231	      9.54360319	      8.05206102	     -1.42296876	    -11.89288898	      5.34354160	     -8.04582122	      6.56106991	     26.98940987	     -4.97253389	     -4.94384786	    -53.12350647	      3.67709101	     -5.84626346	     -0.31507260	     -4.19278737	      0.13862944	      2.08559591
      0.82050000	     -3.17779239	     -2.79257536	      3.81223267	     -0.34735065	      1.03496081	      0.31537014	      9.09940413	      7.97608406	     -1.29298356	    -11.68556639	      5.44645116	     -7.99262987	      6.53543605	     27.10412928	     -4.80974041	     -4.96253253	    -51.62420910	      3.85458355	     -5.90837133	     -0.35550566	     -4.28842195	     -0.00473230	      2.16092722
      0.82466667	     -3.15761790	     -2.67762213	      3.70051840	     -0.34236629	      1.03540398	      0.31553958	      8.66000684	      7.89742772	     -1.15667914	    -11.48791572	      5.55471723	     -7.93935811	      6.50473148	     27.18790790	     -4.64427337	     -4.98139236	    -50.05806130	      3.99324766	     -5.97279021	     -0.40519959	     -4.38439844	     -0.14496385	      2.25474871
      0.82883333	     -3.13835859	     -2.58419166	      3.58666417	     -0.33736980	      1.03580423	      0.31570144	      8.21756142	      7.83915582	     -1.01901292	    -11.27682625	      5.66919149	     -7.87731666	      6.45451158	     27.25094151	     -4.49978338	     -4.98927329	    -48.44003847	      4.09056437	     -6.05300295	     -0.48513181	     -4.47639368	     -0.25071710	      2.38394225
      0.83300000	     -3.12598155	     -2.47869346	      3.45775311	     -0.33238470	      1.03615185	      0.31586875	      7.79352288	      7.76567870	     -0.87305664	    -11.08971358	      5.78088660	     -7.81996220	      6.40435782	     27.28766491	     -4.34237677	     -5.00325832	    -46.75352210	      4.17025977	     -6.12076253	     -0.56679997	     -4.56164371	     -0.37962227	      2.48526543
      0.83716667	     -3.14378840	     -2.39988544	      3.31913988	     -0.32738874	      1.03641132	      0.31603669	      7.40663591	      7.71736910	     -0.72606983	    -10.90696019	      5.88631292	     -7.76760236	      6.35101772	     27.33534557	     -4.21229725	     -5.01098828	    -45.01919385	      4.22120665	     -6.19160665	     -0.65545715	     -4.60413531	     -0.47763725	      2.59369006
      0.84133333	     -3.14786728	     -2.32185759	      3.17293022	     -0.32238996	      1.03664376	      0.31620250	      7.00772448	      7.66807009	     -0.57596639	    -10.72933910	      5.99782712	     -7.71045391	      6.29909794	     27.33922548	     -4.08577966	     -5.02370691	    -43.22661378	      4.24196708	     -6.26342892	     -0.74567291	     -4.66346872	     -0.57033022	      2.70183706
      0.84550000	     -3.16057685	     -2.25746592	      3.01679749	     -0.31738661	      1.03681938	      0.31636120	      6.62241778	      7.63068796	     -0.42026916	    -10.55903211	      6.10940264	     -7.65194507	      6.24446876	     27.32696995	     -3.97318372	     -5.03475570	    -41.38167519	      4.22712999	     -6.35049566	     -0.84263201	     -4.70948727	     -0.64735421	      2.82003344
      0.84966667	     -3.20435956	     -2.19038550	      2.84241438	     -0.31235474	      1.03690431	      0.31655191	      6.27908865	      7.58858882	     -0.25994960	    -10.41039386	      6.21495312	     -7.59544037	      6.21218606	     27.31640859	     -3.86846188	     -5.07431678	    -39.48499459	      4.20839632	     -6.38551508	     -0.90591055	     -4.71822555	     -0.74699570	      2.89794033
      0.85383333	     -3.20363813	     -2.15388366	      2.67959836	     -0.30731385	      1.03701296	      0.31667047	      5.87337392	      7.57466631	     -0.10232607	    -10.22641497	      6.34485481	     -7.52099013	      6.15523986	     27.23763705	     -3.78145888	     -5.07733725	    -37.53857466	      4.11380367	     -6.54985361	     -1.01542859	     -4.76379778	     -0.77107789	      3.06712938
      0.85800000	     -3.24646453	     -2.13508565	      2.50124316	     -0.30225803	      1.03698465	      0.31680823	      5.52779631	      7.57724759	      0.06072645	    -10.07187918	      6.46943028	     -7.44866098	      6.09304931	     27.18672043	     -3.72326322	     -5.10939596	    -35.56421539	      4.03039601	     -6.64529056	     -1.13205322	     -4.76382725	     -0.78992737	      3.20756350
      0.86216667	     -3.28327500	     -2.12642139	      2.31300161	     -0.29716989	      1.03692670	      0.31693844	      5.17509006	      7.58857563	      0.22956234	     -9.91905666	      6.59707650	     -7.38182836	      6.03499845	     27.10378987	     -3.68144458	     -5.16279414	    -33.54964681	      3.93092515	     -6.73087701	     -1.24179360	     -4.75857012	     -0.79483201	      3.34162346
